# xmcd CD database file
#
# Track frame offsets:
#	150
#	10595
#	20438
#	30997
#	40730
#	51371
#	61601
#	73361
#	82496
#	94019
#	105451
#	116735
#	127782
#	137393
#	152269
#	167508
#	185569
#	198498
#	212079
#	222470
#	236712
#	250199
#	262666
#	274928
#	285937
#	297011
#	308071
#	320215
#	327174
#	333985
#	345318
#
# Disc length: 4729 seconds
#
# Revision: 1
# Processed by: cddbd v1.5.2PL0 Copyright (c) Steve Scherf et al.
# Submitted via: jetAudio 7
#
DISCID=b412771f
DTITLE=Chet Atkins - Elegant Chet
DYEAR=2010
DGENRE=Country
TTITLE0=White Silver Sands
TTITLE1=Boo Boo Stick Beat
TTITLE2=Oh, Lonesome Me
TTITLE3=One Mint Julip
TTITLE4=Take A Message To Mary
TTITLE5=Teensville
TTITLE6=Night Train
TTITLE7=Come Softly To Me
TTITLE8=Sleep Walk
TTITLE9=Django's Castle (Manoir De Mes Rêves)
TTITLE10=Till There Was You
TTITLE11=Hot Toddy
TTITLE12=Armen's Theme
TTITLE13=Let It Be Me
TTITLE14=Theme From ''Picnic''
TTITLE15=Theme From ''A Dream''
TTITLE16=Estrellita
TTITLE17=Jitterbug Waltz
TTITLE18=Little Old Lady
TTITLE19=The Terry Theme From ''Limelight''
TTITLE20=The Three Bells
TTITLE21=Santa Lucia
TTITLE22=Greensleeves
TTITLE23=Meet Mister Callaghan
TTITLE24=Jungle Drums
TTITLE25=Walk, Don't Run
TTITLE26=Lullaby Of The Leaves
TTITLE27=Avorada (Little Music Box)
TTITLE28=Bourrée
TTITLE29=Siesta
TTITLE30=Slinkey
EXTD=
EXTT0=
EXTT1=
EXTT2=
EXTT3=
EXTT4=
EXTT5=
EXTT6=
EXTT7=
EXTT8=
EXTT9=
EXTT10=
EXTT11=
EXTT12=
EXTT13=
EXTT14=
EXTT15=
EXTT16=
EXTT17=
EXTT18=
EXTT19=
EXTT20=
EXTT21=
EXTT22=
EXTT23=
EXTT24=
EXTT25=
EXTT26=
EXTT27=
EXTT28=
EXTT29=
EXTT30=
PLAYORDER=
